<?xml version="1.0" standalone="no"?>
<!DOCTYPE svg PUBLIC "-//W3C//DTD SVG 1.1//EN" "http://www.w3.org/Graphics/SVG/1.1/DTD/svg11.dtd" >
<svg xmlns="http://www.w3.org/2000/svg">
<metadata>
This is a custom SVG webfont generated by Font Squirrel.
Copyright   : Created by gluk with FontForge 20 httpfontforgesfnet
</metadata>
<defs>
<font id="RawengulkRegular" horiz-adv-x="1169" >
<font-face units-per-em="2048" ascent="1610" descent="-438" />
<missing-glyph horiz-adv-x="731" />
<glyph unicode=" "  horiz-adv-x="731" />
<glyph unicode="&#x09;" horiz-adv-x="731" />
<glyph unicode="&#xa0;" horiz-adv-x="731" />
<glyph unicode="!" horiz-adv-x="364" d="M119 45q0 27 18.5 46.5t45 19.5t46 -19.5t19.5 -46.5t-19.5 -45t-46 -18t-45 18t-18.5 45zM145 367v1024h111v-74h-37v-950h-74z" />
<glyph unicode="&#x22;" horiz-adv-x="512" d="M92 1104l17 55q18 68 18 162q0 51 -4 68l72 12q6 -25 6 -80q0 -104 -21 -180l-18 -58zM293 1104l16 55q20 76 21 162q0 43 -6 68l71 12q6 -25 6 -80q0 -104 -20 -180l-16 -58z" />
<glyph unicode="#" horiz-adv-x="802" d="M55 438l6 74h146l24 293h-145l8 74h144l20 219h74l-21 -219h219l21 219h72l-19 -219h146l-9 -74h-143l-27 -293h148l-8 -74h-144l-20 -219h-74l21 219h-220l-20 -219h-74l21 219h-146zM281 512h219l24 293h-219z" />
<glyph unicode="$" horiz-adv-x="1243" d="M74 236v57h71v-29q68 -63 193 -121.5t248 -66.5v600q-80 20 -133.5 36.5t-117 46t-101 62.5t-63.5 83t-26 112q0 119 131.5 204t309.5 95v110h71v-110q270 -16 428 -174l13 -11v-69h-74v39q-135 127 -367 141v-506q96 -25 150.5 -40t134.5 -49t122 -70.5t73.5 -96 t31.5 -135.5q0 -147 -136 -242.5t-376 -101.5v-111h-71v113q-145 10 -289.5 82t-212.5 141zM219 1016q0 -106 93.5 -161.5t273.5 -100.5v487q-156 -8 -261.5 -77.5t-105.5 -147.5zM657 74q203 6 322 79.5t119 190.5q0 57 -27 103.5t-61.5 76t-102 57t-115 40.5t-135.5 36 v-583z" />
<glyph unicode="%" horiz-adv-x="1314" d="M74 1061q0 102 67.5 179t188.5 77t188.5 -77t67.5 -179q0 -104 -68.5 -180t-187.5 -76t-187.5 75.5t-68.5 180.5zM119 96l1024 1172l55 -47l-1024 -1172zM145 1061q0 -76 47.5 -129t137.5 -53t136 53t46 129q0 74 -46 128t-136 54q-88 0 -136.5 -54t-48.5 -128zM731 256 q0 102 67.5 179t188.5 77t188.5 -77t67.5 -179q0 -104 -68.5 -180t-187.5 -76t-187.5 76t-68.5 180zM805 256q0 -76 46 -129t136 -53t136 53t46 129q0 74 -46 128t-136 54q-88 0 -135 -54t-47 -128z" />
<glyph unicode="&#x26;" horiz-adv-x="1388" d="M74 367q0 113 73.5 217t202.5 170q-57 94 -57 192v4q0 152 107.5 259.5t256.5 107.5q145 0 256 -100.5t111 -229.5v-37h-111v74h33q-18 88 -99 153.5t-190 65.5q-121 0 -205.5 -86t-84.5 -207v-4q0 -86 51 -167t215 -255l344 -366q193 131 192 362q0 18 -5 43t-18 62 t-45 65.5t-77 36.5v-33h-74v111h37q63 0 111.5 -24.5t75 -58.5t43 -77t21.5 -72.5t5 -52.5q0 -266 -215 -418q37 -29 78 -28h211v-74h-211q-80 0 -143 63q-152 -82 -336 -81q-270 0 -411.5 112.5t-141.5 272.5zM145 367q0 -125 120 -218.5t362 -93.5q152 0 284 64l-331 354 q-145 160 -189 219q-113 -55 -179.5 -143t-66.5 -182z" />
<glyph unicode="'" horiz-adv-x="290" d="M92 1104l17 55q18 68 18 162q0 51 -4 68l72 12q6 -25 6 -80q0 -104 -21 -180l-18 -58z" />
<glyph unicode="(" horiz-adv-x="512" d="M74 528v2q0 319 88 611.5t256 394.5l39 -61q-139 -84 -225.5 -353.5t-86.5 -591.5v-2q0 -315 85 -568t227 -337l-39 -61q-170 102 -257 375.5t-87 590.5z" />
<glyph unicode=")" horiz-adv-x="512" d="M55 -377q141 84 226.5 338t85.5 569q0 322 -86 591.5t-226 353.5l39 61q168 -102 256 -394t88 -611.5t-87 -593t-257 -375.5z" />
<glyph unicode="*" horiz-adv-x="657" d="M74 1114l24 68l195 -70v205h74v-205l192 70l27 -68l-199 -72l123 -168l-57 -45l-123 170l-123 -170l-60 45l123 168z" />
<glyph unicode="+" horiz-adv-x="950" d="M74 657v74h364v367h74v-367h367v-74h-367v-364h-74v364h-364z" />
<glyph unicode="," horiz-adv-x="364" d="M82 -178q74 74 74 164q-45 14 -45 59q0 27 18 46.5t45 19.5t45.5 -19.5t18.5 -46.5q0 -133 -123 -256z" />
<glyph unicode="-" horiz-adv-x="657" d="M74 512v74h512v-74h-512z" />
<glyph unicode="." horiz-adv-x="364" d="M111 45q0 27 18 46.5t45 19.5t45.5 -19.5t18.5 -46.5t-18.5 -45t-45.5 -18t-45 18t-18 45z" />
<glyph unicode="/" horiz-adv-x="1095" d="M37 -78l962 1503l62 -39l-963 -1503z" />
<glyph unicode="0" d="M74 676q0 268 148.5 463.5t363.5 195.5t363.5 -195.5t148.5 -463.5q0 -285 -147.5 -489.5t-364.5 -204.5t-364.5 204.5t-147.5 489.5zM145 676q0 -254 128 -437.5t313 -183.5q176 0 307 179.5t131 441.5q0 246 -130 416t-308 170t-309.5 -170t-131.5 -416z" />
<glyph unicode="1" horiz-adv-x="438" d="M63 1139l158 178h72v-1317h-74v1204h-2l-98 -112z" />
<glyph unicode="2" horiz-adv-x="950" d="M74 0v68l465 440q147 139 206.5 236.5t59.5 185.5v2q0 135 -97.5 232.5t-232.5 97.5t-232.5 -97.5t-97.5 -232.5h-71q0 166 117.5 284.5t283.5 118.5t285 -118.5t119 -284.5v-2q0 -109 -68 -221.5t-221 -255.5l-404 -379h619v37h74v-111h-805z" />
<glyph unicode="3" horiz-adv-x="950" d="M74 375h71q0 -133 96.5 -226.5t233.5 -93.5t233.5 93.5t96.5 226.5t-96.5 226t-233.5 93v74q106 0 181 72.5t75 175t-74.5 174.5t-181 72t-181.5 -72t-75 -174h-74q0 133 97.5 226t232.5 93q133 0 231.5 -95t98.5 -224q0 -94 -53.5 -169t-139.5 -112v-2q119 -39 193 -136 t74 -222q0 -162 -119 -277.5t-285 -115.5t-283.5 115.5t-117.5 277.5z" />
<glyph unicode="4" horiz-adv-x="950" d="M74 219v68l4 10q242 365 336 587t94 433h74q0 -219 -93.5 -446.5t-324.5 -577.5h567v586h74v-586h74v-74h-74v-219h-74v219h-657z" />
<glyph unicode="5" horiz-adv-x="950" d="M74 207v8v41h71v-31q45 -76 135.5 -123t180.5 -47q133 0 238.5 106.5t105.5 313.5q0 201 -101.5 302.5t-228.5 101.5q-90 0 -194.5 -68t-135.5 -164l-71 12q6 102 19 311.5t20 311.5l2 35h690v-111h-74v37h-547l-28 -440q63 68 152 107.5t167 39.5q158 0 281 -121.5 t123 -353.5q0 -240 -127 -366.5t-291 -126.5q-109 0 -218.5 57t-164.5 158z" />
<glyph unicode="6" horiz-adv-x="950" d="M74 457q0 78 1 132t9 154.5t22.5 171t44 155.5t70.5 138.5t106.5 90t147.5 36.5q199 0 322 -159l8 -11v-59h-74v35q-94 121 -256 121q-283 0 -330 -539h2q57 96 149 152.5t198 56.5q158 0 271.5 -138.5t113.5 -337t-114 -336.5t-271 -138q-176 0 -298 139t-122 336z M145 457q0 -168 102.5 -285t246.5 -117q127 0 219 116t92 286t-92 286.5t-219 116.5q-143 0 -246 -117.5t-103 -285.5z" />
<glyph unicode="7" horiz-adv-x="876" d="M37 1206v111h768v-68l-170 -233q-268 -365 -268 -1016h-74q0 678 280 1061l136 182h-598v-37h-74z" />
<glyph unicode="8" horiz-adv-x="950" d="M74 375q0 125 73.5 222t190.5 136v2q-86 37 -139.5 112t-53.5 169q0 133 97.5 226t232.5 93t232.5 -93t97.5 -226q0 -94 -53.5 -169t-139.5 -112v-2q119 -39 193 -136t74 -222q0 -162 -119 -277.5t-285 -115.5t-283.5 115.5t-117.5 277.5zM145 375q0 -133 96.5 -226.5 t233.5 -93.5t233.5 93.5t96.5 226.5t-96.5 226t-233.5 93t-233.5 -93t-96.5 -226zM219 1015.5q0 -102.5 75 -175t181.5 -72.5t181 72.5t74.5 175t-74.5 174.5t-181 72t-181.5 -72t-75 -174.5z" />
<glyph unicode="9" horiz-adv-x="950" d="M74 860.5q0 198.5 112.5 336.5t270.5 138q176 0 299 -139t123 -336q0 -78 -1 -132t-9.5 -153.5t-23 -171t-45 -156.5t-71.5 -138.5t-106.5 -90t-147.5 -36.5q-199 0 -321 159l-9 11v59h74v-35q94 -121 256 -121q285 0 332 539h-2q-57 -96 -149.5 -152.5t-198.5 -56.5 q-158 0 -270.5 138.5t-112.5 337zM145 860q0 -170 92.5 -286.5t219.5 -116.5q143 0 245.5 117.5t102.5 285.5t-102.5 285t-245.5 117q-127 0 -219.5 -116t-92.5 -286z" />
<glyph unicode=":" horiz-adv-x="364" d="M111 45q0 27 18 46.5t45 19.5t45.5 -19.5t18.5 -46.5t-18.5 -45t-45.5 -18t-45 18t-18 45zM111 831.5q0 26.5 18 46t45 19.5t45.5 -19.5t18.5 -46t-18.5 -45t-45.5 -18.5t-45 18.5t-18 45z" />
<glyph unicode=";" horiz-adv-x="364" d="M82 -178q74 74 74 164q-45 14 -45 59q0 27 18 46.5t45 19.5t45.5 -19.5t18.5 -46.5q0 -133 -123 -256zM111 831.5q0 26.5 18 46t45 19.5t45.5 -19.5t18.5 -46t-18.5 -45t-45.5 -18.5t-45 18.5t-18 45z" />
<glyph unicode="&#x3c;" horiz-adv-x="657" d="M74 618v82l508 347l41 -64l-478 -321v-7l478 -338l-43 -59z" />
<glyph unicode="=" horiz-adv-x="950" d="M74 438v74h805v-74h-805zM74 805v74h805v-74h-805z" />
<glyph unicode="&#x3e;" horiz-adv-x="657" d="M37 317l475 338v7l-475 321l41 64l508 -347v-82l-508 -360z" />
<glyph unicode="?" horiz-adv-x="876" d="M74 1024q0 152 107.5 259.5t256.5 107.5q152 0 259.5 -107.5t107.5 -259.5q0 -94 -38 -163.5t-91 -109.5t-107.5 -74t-92.5 -75t-38 -94v-141h-71v141q0 70 37.5 122t91 86t106.5 69.5t91 96t38 142.5q0 121 -86 207t-207 86t-207 -86t-86 -207h-71zM338 45 q0 27 18.5 46.5t45 19.5t46 -19.5t19.5 -46.5t-19.5 -45t-46 -18t-45 18t-18.5 45z" />
<glyph unicode="@" horiz-adv-x="1644" d="M37 401q0 344 255 600t632 256q219 0 378.5 -96t233.5 -238.5t74 -306.5q0 -139 -46 -254.5t-117 -185.5t-149.5 -106.5t-152.5 -36.5q-145 0 -178 108h-2q-106 -119 -244 -118q-113 0 -203 89t-90 250q0 244 149.5 404t309.5 160h282l-131 -668q-6 -37 -6 -61 q0 -45 23.5 -68t89.5 -23q133 0 262 135.5t129 374.5q0 106 -38 206t-110.5 181.5t-193.5 132t-270 50.5q-344 0 -578.5 -235.5t-234.5 -549.5q0 -252 160.5 -427t457.5 -175q217 0 399 92l31 -63q-205 -102 -430 -102q-326 0 -509 196.5t-183 478.5zM502 362 q0 -129 68.5 -198.5t150.5 -69.5q61 0 132 44t108 122l6 16l114 576h-194q-129 0 -257 -139.5t-128 -350.5z" />
<glyph unicode="A" horiz-adv-x="1243" d="M55 0v74h29l528 1333h56l555 -1395l-68 -24l-151 379h-723l-146 -367h-80zM309 438h666l-336 836z" />
<glyph unicode="B" horiz-adv-x="1243" d="M111 1317v74h446q217 0 342 -89.5t125 -224.5q0 -90 -57.5 -169t-161.5 -122h-2v-2h2q168 -33 266 -146.5t98 -252.5q0 -162 -122.5 -273.5t-341.5 -111.5h-560v1317h-34zM219 74h486q188 0 290.5 90t102.5 221q0 133 -112 239.5t-300 106.5h-467v-657zM219 805h338 q188 0 290.5 84t102.5 188q0 98 -100 169t-293 71h-338v-512z" />
<glyph unicode="C" horiz-adv-x="1280" d="M74 694q0 295 209 505t503 210q219 0 404 -125l16 -12v-66h-71v27q-162 102 -349 102q-264 0 -452.5 -188.5t-188.5 -452.5t188.5 -451.5t452.5 -187.5q207 0 369 117l45 -59q-184 -131 -414 -131q-295 0 -503.5 208.5t-208.5 503.5z" />
<glyph unicode="D" horiz-adv-x="1388" d="M111 1317v74h512q289 0 491.5 -204t202.5 -492.5t-203 -491.5t-491 -203h-478v1317h-34zM219 74h404q258 0 439 181t181 439t-181 440.5t-439 182.5h-404v-1243z" />
<glyph unicode="E" d="M111 1317v74h913v-111h-74v37h-731v-586h438v-74h-438v-583h805v37h74v-111h-953v1317h-34z" />
<glyph unicode="F" d="M111 1317v74h987v-111h-74v37h-805v-586h512v-74h-512v-657h-74v1317h-34z" />
<glyph unicode="G" horiz-adv-x="1388" d="M74 694q0 295 209 505t503 210q256 0 457 -168v-72h-74v37q-176 129 -383 129q-264 0 -452.5 -188.5t-188.5 -452.5t188.5 -451.5t452.5 -187.5q268 0 457 193v338h-293v71h367v-657h-74v170q-90 -82 -213 -135t-244 -53q-295 0 -503.5 208.5t-208.5 503.5z" />
<glyph unicode="H" horiz-adv-x="1314" d="M145 0v1391h74v-660h879v660h71v-1391h-71v657h-879v-657h-74z" />
<glyph unicode="I" horiz-adv-x="364" d="M145 0v1391h74v-1391h-74z" />
<glyph unicode="J" horiz-adv-x="802" d="M37 106v39h74v-18q31 -43 88 -66.5t123 -23.5q109 0 186.5 68.5t77.5 187.5v1024h-441v74h512v-1098q0 -152 -99 -241t-236 -89q-84 0 -162 35t-117 98z" />
<glyph unicode="K" horiz-adv-x="1243" d="M145 0v1391h74v-897h4l760 897h115v-74h-80l-504 -592l498 -586q33 -39 62.5 -52t94.5 -13v-74q-82 0 -127 21.5t-88 70.5l-489 576l-246 -287v-381h-74z" />
<glyph unicode="L" d="M145 0v1391h74v-1317h805v37h74v-111h-953z" />
<glyph unicode="M" horiz-adv-x="1974" d="M111 0v74h20l164 1331h59l633 -1327l633 1327h61l185 -1401l-72 -10l-166 1253l-604 -1265h-72l-602 1263l-153 -1245h-86z" />
<glyph unicode="N" horiz-adv-x="1314" d="M111 1317v74h108l879 -1264v1264h71v-1391h-71l-879 1264v-1264h-74v1317h-34z" />
<glyph unicode="O" horiz-adv-x="1570" d="M74 694q0 295 209 505t503.5 210t503.5 -210t209 -505t-209 -503.5t-503.5 -208.5t-503.5 208.5t-209 503.5zM145 694q0 -264 188.5 -451.5t453 -187.5t451.5 187.5t187 451.5t-187 452.5t-451.5 188.5t-453 -188.5t-188.5 -452.5z" />
<glyph unicode="P" horiz-adv-x="1243" d="M111 1317v74h583q199 0 337 -139.5t138 -338t-138 -337t-337 -138.5h-475v-438h-74v1317h-34zM219 512h475q166 0 285 118t119 283.5t-119 284.5t-285 119h-475v-805z" />
<glyph unicode="Q" horiz-adv-x="1570" d="M74 694q0 295 209 505t503.5 210t503.5 -210t209 -505t-209 -503.5t-504 -208.5h-2q-295 0 -438 -191l27 -29q76 70 196 70q96 0 284.5 -61.5t246.5 -61.5q43 0 69.5 31t26.5 59h74q0 -61 -49.5 -112.5t-120.5 -51.5q-70 0 -256.5 61.5t-274.5 61.5q-111 0 -168 -73 l-28 -35l-121 137l14 23q100 154 307 204q-221 68 -360 255.5t-139 424.5zM145 694q0 -264 188.5 -451.5t453 -187.5t451.5 187.5t187 451.5t-187 452.5t-451.5 188.5t-453 -188.5t-188.5 -452.5z" />
<glyph unicode="R" horiz-adv-x="1243" d="M111 1317v74h520q219 0 343 -120t124 -284q0 -160 -122 -270.5t-339 -112.5h-2v-2h2q61 -31 123 -125l213 -332q29 -43 51.5 -57t60.5 -14h84v-74h-84q-57 0 -96 22.5t-78 83.5l-213 330q-68 104 -111.5 127t-185.5 23h-182v-586h-74v1317h-34zM219 657h412 q188 0 290.5 98.5t102.5 231.5t-102.5 231.5t-290.5 98.5h-412v-660z" />
<glyph unicode="S" horiz-adv-x="1243" d="M74 199v67h71v-37q74 -63 208 -118.5t270 -55.5q227 0 351 79t124 188q0 70 -33 124t-104.5 99t-138 74.5t-183.5 72.5q-249 90 -336 146q-158 102 -158 247q0 141 137.5 232.5t340.5 91.5q117 0 244.5 -42t217.5 -130l13 -12v-68h-74v37q-76 68 -185.5 104.5 t-215.5 36.5q-170 0 -287 -70.5t-117 -179.5q0 -57 30 -102t97.5 -85t134 -68.5t183.5 -69.5q92 -33 141 -52.5t130 -61.5t124 -83t76.5 -104.5t33.5 -136.5q0 -150 -149.5 -245t-396.5 -95q-158 0 -311.5 66.5t-227.5 139.5z" />
<glyph unicode="T" horiz-adv-x="1243" d="M74 1280v111h1095v-111h-71v37h-441v-1317h-71v1317h-441v-37h-71z" />
<glyph unicode="U" horiz-adv-x="1314" d="M111 1317v74h108v-897q0 -182 128 -310.5t310.5 -128.5t311.5 129t129 310v897h71v-897q0 -211 -150.5 -361.5t-361.5 -150.5t-361.5 150.5t-150.5 361.5v823h-34z" />
<glyph unicode="V" horiz-adv-x="1243" d="M37 1317v74h80l506 -1276l514 1288l67 -27l-555 -1392h-55l-528 1333h-29z" />
<glyph unicode="W" horiz-adv-x="1974" d="M55 1317v74h80l469 -1270l346 921v201h74v-201l342 -921l477 1282l70 -27l-520 -1392h-54l-352 946l-356 -946h-56l-491 1333h-29z" />
<glyph unicode="X" horiz-adv-x="1243" d="M47 25l528 694l-495 649l59 43l484 -633l479 631l57 -45l-491 -645l528 -694l-59 -43l-514 675l-517 -675z" />
<glyph unicode="Y" horiz-adv-x="1243" d="M55 1317v74h74l492 -807h2l495 821l64 -37l-525 -868v-500h-71v500l-496 817h-35z" />
<glyph unicode="Z" d="M74 0v47l878 1268h2v2h-772v-37h-71v111h950v-50l-881 -1265h-2v-2h846v37h74v-111h-1024z" />
<glyph unicode="[" horiz-adv-x="438" d="M145 -438v1974h222v-74h-148v-1829h148v-71h-222z" />
<glyph unicode="\" horiz-adv-x="1095" d="M37 1386l61 39l963 -1503l-62 -39z" />
<glyph unicode="]" horiz-adv-x="438" d="M74 -367h145v1829h-145v74h219v-1974h-219v71z" />
<glyph unicode="^" horiz-adv-x="1046" d="M74 897l409 512q8 10 21 10q14 0 22 -10l396 -514l-43 -33l-375 484l-389 -486z" />
<glyph unicode="_" horiz-adv-x="1443" d="M74 -330h1243v-55h-1243v55z" />
<glyph unicode="`" horiz-adv-x="438" d="M55 1333l76 76l254 -256l-49 -55z" />
<glyph unicode="a" horiz-adv-x="1095" d="M74 283q0 125 106.5 214t294.5 89h404v53q0 139 -94.5 198.5t-227.5 59.5q-145 0 -264 -55v-37h-74v80q133 84 338 84q166 0 279.5 -80t113.5 -250v-565h37v-74h-108v150h-2q-70 -80 -180.5 -124t-221.5 -44q-166 0 -283.5 88t-117.5 213zM145 283q0 -94 97.5 -161 t232.5 -67q121 0 241 52.5t163 138.5v266h-404q-160 0 -245 -68.5t-85 -160.5z" />
<glyph unicode="b" d="M111 1317v74h108v-672h2q59 115 165 182.5t237 67.5q197 0 336 -145.5t139 -348.5t-139.5 -348t-335.5 -145q-131 0 -236.5 67.5t-165.5 181.5h-2v-231h-74v1317h-34zM219 475q0 -174 119 -297t284.5 -123t283.5 123t118 297t-118 298t-283.5 124t-284.5 -124t-119 -298z " />
<glyph unicode="c" horiz-adv-x="987" d="M74 475q0 205 144 349.5t349 144.5q188 0 334 -131l12 -11v-59h-71v27q-123 102 -275 102q-174 0 -298 -124t-124 -298t124 -297t298 -123q180 0 307 133l56 -51q-149 -155 -360 -155h-3q-205 0 -349 144t-144 349z" />
<glyph unicode="d" d="M74 475q0 203 139 348.5t336 145.5q131 0 235.5 -67.5t163.5 -182.5h2v598h-37v74h111v-1317h37v-74h-111v231h-2q-59 -115 -163.5 -182t-235.5 -67q-197 0 -336 145t-139 348zM145 475q0 -174 119 -297t285 -123t283.5 123t117.5 297t-117.5 298t-283.5 124t-285 -124 t-119 -298z" />
<glyph unicode="e" horiz-adv-x="1058" d="M74 475q0 205 145.5 349.5t347.5 144.5q248 0 398 -203l20 -27l-24 -22q-10 -8 -63.5 -56.5t-90.5 -77t-93.5 -67.5t-112.5 -58.5t-107 -19.5h-347q14 -162 135 -272.5t285 -110.5q180 0 307 133l54 -49q-146 -157 -358 -157h-3q-205 0 -349 144t-144 349zM147 512h347 q23 0 46 4t48.5 16.5t45 20.5t48.5 29.5t43 30t46 36t39 33.5t41 37l34 31q-127 147 -318 147q-162 0 -283.5 -111.5t-136.5 -273.5z" />
<glyph unicode="f" horiz-adv-x="731" d="M74 879v71h145v148q0 129 91 220t220 91q86 0 157 -42t112 -114l6 -10v-55h-74v35q-71 112 -199 112h-2q-98 0 -167.5 -69.5t-69.5 -167.5v-148h293v-71h-293v-879h-74v879h-145z" />
<glyph unicode="g" horiz-adv-x="1024" d="M37 -186q0 78 37 153.5t92 126.5q-51 33 -51 92q0 86 125 217q-94 94 -95 228q0 141 108.5 239.5t258.5 98.5q63 0 119 -19h356v-71h-225q117 -100 117 -248q0 -141 -108.5 -239.5t-258.5 -98.5q-121 0 -215 65q-109 -109 -109 -172q0 -31 56 -43l563 -137 q90 -20 144.5 -86.5t54.5 -146.5q0 -88 -73 -149.5t-206 -61.5h-373q-162 0 -239.5 71.5t-77.5 180.5zM111 -186q0 -80 58 -130.5t185 -50.5h373q102 0 153.5 41t51.5 99q0 53 -37 99t-104 62l-545 132q-55 -37 -95 -110t-40 -142zM219 631q0 -109 85 -186.5t208 -77.5 t208 77.5t85 186t-86 187.5t-207 79q-123 0 -208 -77.5t-85 -188.5z" />
<glyph unicode="h" d="M111 1317v74h108v-711h2q63 133 178 211t258 78q166 0 266.5 -89t100.5 -241v-565h37v-74h-111v74v565q0 123 -78.5 190.5t-214.5 67.5q-178 0 -308 -137t-130 -340v-420h-74v1317h-34z" />
<glyph unicode="i" horiz-adv-x="364" d="M111 879v71h108v-950h-74v879h-34zM111 1253.5q0 26.5 18 45t45 18.5t45.5 -18.5t18.5 -45t-18.5 -46t-45.5 -19.5t-45 19.5t-18 46z" />
<glyph unicode="j" horiz-adv-x="327" d="M-293 -256h74v-25q61 -86 164 -86q82 0 141 59.5t59 143.5v1043h-34v71h108v-1114q0 -115 -81 -194.5t-193 -79.5q-152 0 -232 127l-6 10v45zM109 1253.5q0 26.5 19 45t46 18.5t45.5 -18.5t18.5 -45t-18.5 -46t-45.5 -19.5t-46 19.5t-19 46z" />
<glyph unicode="k" horiz-adv-x="1095" d="M111 1317v74h108v-1092h2l619 651h110v-71h-80l-333 -355l344 -385q60 -65 141 -65h2v-74q-115 0 -197 92l-340 379l-268 -283v-188h-74v1317h-34z" />
<glyph unicode="l" horiz-adv-x="364" d="M111 1317v74h108v-1391h-74v1317h-34z" />
<glyph unicode="m" horiz-adv-x="1826" d="M111 879v71h108v-248h2q35 80 86 135.5t109.5 82t107.5 38t99 11.5q297 0 325 -275h2q66 154 177.5 214.5t226.5 60.5q160 0 243.5 -85t83.5 -245v-565h37v-74h-108v74v565q0 258 -256 258q-174 0 -289 -135t-115 -342v-420h-71v639q0 258 -256 258q-174 0 -289 -135 t-115 -342v-420h-74v879h-34z" />
<glyph unicode="n" d="M111 879v71h108v-270h2q63 133 178 211t258 78q166 0 266.5 -89t100.5 -241v-565h37v-74h-111v74v565q0 123 -78.5 190.5t-214.5 67.5q-178 0 -308 -137t-130 -340v-420h-74v879h-34z" />
<glyph unicode="o" horiz-adv-x="1132" d="M74 475q0 205 144 349.5t349 144.5t349.5 -144.5t144.5 -349.5t-144.5 -349t-349.5 -144t-349 144t-144 349zM145 475q0 -174 124 -297t298 -123t297 123t123 297t-123 298t-297 124t-298 -124t-124 -298z" />
<glyph unicode="p" d="M111 879v71h108v-231h2q59 115 165 182.5t237 67.5q197 0 336 -145.5t139 -348.5t-139.5 -348t-335.5 -145q-131 0 -236.5 67.5t-165.5 181.5h-2v-669h-74v1317h-34zM219 475q0 -174 119 -297t284.5 -123t283.5 123t118 297t-118 298t-283.5 124t-284.5 -124t-119 -298z " />
<glyph unicode="q" d="M74 475q0 203 139 348.5t336 145.5q131 0 235.5 -67.5t163.5 -182.5h2v231h74v-1317h37v-71h-111v669h-2q-59 -115 -163.5 -182t-235.5 -67q-197 0 -336 145t-139 348zM145 475q0 -174 119 -297t285 -123t283.5 123t117.5 297t-117.5 298t-283.5 124t-285 -124t-119 -298 z" />
<glyph unicode="r" horiz-adv-x="731" d="M111 879v71h108v-311h2q63 147 179 238.5t223 91.5h34v-109h-71v33q-127 -25 -247 -174.5t-120 -351.5v-367h-74v879h-34z" />
<glyph unicode="s" horiz-adv-x="950" d="M74 145v56h71v-29q102 -117 330 -117q160 0 245 53.5t85 120.5q0 45 -22.5 80t-75 62.5t-90 43t-117.5 42.5q-17 6 -25 8q-61 20 -98 34.5t-87 40t-77 51t-47.5 64.5t-20.5 84q0 90 100.5 160t229.5 70q201 0 320 -117l10 -10v-56h-74v25q-98 86 -256 86q-104 0 -180 -53 t-76 -105q0 -70 64.5 -112.5t191.5 -85.5q212 -70 280 -113q124 -77 124 -199q0 -111 -111 -179t-293 -68q-272 0 -395 155z" />
<glyph unicode="t" horiz-adv-x="876" d="M74 879v71h145v219h74v-219h438v-71h-438v-586q0 -98 69.5 -168t167.5 -70q131 0 201 111v16h74v-37l-6 -8q-41 -72 -112 -113.5t-157 -41.5q-129 0 -220 91t-91 220v586h-145z" />
<glyph unicode="u" d="M111 879v71h108v-71v-568q0 -123 79 -189.5t214 -66.5q178 0 308 136.5t130 338.5v420h74v-876h37v-74h-111v270h-2q-63 -133 -178 -210.5t-258 -77.5q-166 0 -266.5 89t-100.5 240v568h-34z" />
<glyph unicode="v" horiz-adv-x="1095" d="M55 879v71h76l436 -854l445 871l65 -33l-487 -950h-47l-455 895h-33z" />
<glyph unicode="w" horiz-adv-x="1644" d="M55 879v71h78l379 -844l293 650v157h74v-157l290 -650l387 859l66 -29l-426 -952h-51l-303 673l-305 -673h-50l-401 895h-31z" />
<glyph unicode="x" horiz-adv-x="1024" d="M49 27l416 469l-338 383h-35v71h68l352 -399l371 420l55 -47l-377 -428l414 -469l-55 -47l-408 460l-408 -460z" />
<glyph unicode="y" horiz-adv-x="1095" d="M37 -258h74v-16q66 -92 153 -93q102 0 178 156l66 137l-422 953h-31v71h78l416 -936h2l436 908v28h74v-47l-553 -1147q-92 -194 -242 -194h-2q-68 0 -127 40t-94 93l-6 8v39z" />
<glyph unicode="z" horiz-adv-x="1024" d="M74 0v51l721 826v2h-613v-37h-71v108h802v-51l-720 -823v-2h686v37h71v-111h-876z" />
<glyph unicode="{" horiz-adv-x="438" d="M0 494v110h37q20 0 41.5 9.5t44 45t22.5 91.5v530q0 152 61.5 204t160.5 52v-74q-74 0 -111 -35.5t-37 -146.5v-530q0 -147 -108 -201q109 -53 108 -201v-530q0 -111 37 -148t111 -37v-71q-98 0 -160 52t-62 204v530q0 55 -22.5 91t-44 45.5t-41.5 9.5h-37z" />
<glyph unicode="|" horiz-adv-x="364" d="M145 -367v1684h74v-1684h-74z" />
<glyph unicode="}" horiz-adv-x="438" d="M74 -367q74 0 109.5 36t35.5 149v530q0 147 111 201q-111 53 -111 201v530q0 111 -36 146.5t-109 35.5v74q98 0 158.5 -52t60.5 -204v-530q0 -55 22.5 -91t44 -45.5t41.5 -9.5h37v-110h-37q-20 0 -41.5 -9.5t-44 -45.5t-22.5 -91v-530q0 -152 -60.5 -204t-158.5 -52v71z " />
<glyph unicode="~" horiz-adv-x="731" d="M61 657q10 66 51.5 100t96.5 34q43 0 88 -23l172 -80q31 -14 55 -14q27 0 44.5 16.5t20.5 25.5t7 27l74 -12q-10 -61 -49 -96t-97 -35q-45 0 -90 23l-170 79q-31 14 -55 15q-57 0 -74 -70z" />
<glyph unicode="&#xa1;" horiz-adv-x="364" d="M111 -367h34v953h74v-1024h-108v71zM119 905.5q0 26.5 18.5 45t45 18.5t46 -18.5t19.5 -45t-19.5 -45t-46 -18.5t-45 18.5t-18.5 45z" />
<glyph unicode="&#xa2;" horiz-adv-x="1024" d="M74 548.5q0 190.5 126 334t312 172.5v114h74v-108q210 0 364 -154v-65h-71v35q-123 111 -293 110v-876q195 0 321 137l51 -49q-156 -162 -372 -162v-111h-74v117q-186 29 -312 172t-126 333.5zM145 549q0 -160 105.5 -283.5t261.5 -150.5v866q-156 -27 -261.5 -149.5 t-105.5 -282.5z" />
<glyph unicode="&#xa3;" horiz-adv-x="1095" d="M55 0v74q98 0 168 69.5t70 167.5v346h-148v74h148v311q0 129 91 220.5t220 91.5q86 0 156.5 -42t111.5 -114l7 -10v-37h-74v18q-70 111 -201 111q-98 0 -167.5 -69.5t-69.5 -168.5v-311h290v-74h-290v-346q0 -143 -111 -237h694v37h74v-111h-969z" />
<glyph unicode="&#xa4;" horiz-adv-x="657" d="M43 879l53 47l86 -84q60 47 152 47q90 0 160 -55l88 90l49 -56l-86 -86q51 -68 51 -155q0 -92 -47 -152l80 -82l-56 -47l-75 76q-72 -55 -164 -55q-86 0 -154 51l-84 -82l-47 55l78 78q-53 68 -53 158q0 94 55 164zM145 627q0 -78 55.5 -133.5t133.5 -55.5q80 0 135 56 q53 53 53 133t-53 133q-55 55 -135 55q-78 0 -133.5 -55t-55.5 -133z" />
<glyph unicode="&#xa5;" horiz-adv-x="1243" d="M55 1317v74h74l489 -805h7l495 823l66 -37l-477 -786h241v-74h-284l-9 -12v-133h293v-74h-293v-293h-71v293h-293v74h293v133l-8 12h-285v74h242l-445 731h-35z" />
<glyph unicode="&#xa6;" horiz-adv-x="364" d="M145 293h74v-731h-74v731zM145 657v734h74v-734h-74z" />
<glyph unicode="&#xa7;" d="M74 606q0 88 54 165t163 124q-72 86 -72 195q0 129 92 215t275 86q150 0 257 -107.5t107 -259.5h-71q0 121 -86 207t-207 86q-150 0 -221.5 -63.5t-71.5 -163.5q0 -104 83 -174t201.5 -114t236.5 -92t201 -139.5t83 -226.5q0 -92 -57.5 -167t-161.5 -120q72 -86 71 -196 q0 -129 -91 -214t-273 -85q-152 0 -259.5 107.5t-107.5 256.5h74q0 -121 86 -207t207 -86q150 0 221.5 63.5t71.5 164.5q0 104 -83 173.5t-202 114t-236.5 92.5t-200.5 139t-83 226zM145 606q0 -109 76 -187.5t171 -115.5t225 -89t200 -103q102 35 154.5 97t52.5 136 q0 109 -76 187.5t-171 115.5t-225 89t-200 104q-102 -35 -154.5 -97.5t-52.5 -136.5z" />
<glyph unicode="&#xa8;" horiz-adv-x="731" d="M92 1216.5q0 26.5 18.5 45t45 18.5t45 -18.5t18.5 -45t-18.5 -46t-45 -19.5t-45 19.5t-18.5 46zM520 1216.5q0 26.5 19.5 45t46 18.5t45 -18.5t18.5 -45t-18.5 -46t-45 -19.5t-46 19.5t-19.5 46z" />
<glyph unicode="&#xa9;" horiz-adv-x="1681" d="M63.5 698.5q-0.5 192.5 102.5 352.5q100 164 283 262q186 98 393 98t393 -98q180 -96 281 -262q102 -160 102 -352.5t-102 -352.5q-100 -166 -281 -262q-178 -94 -393 -94t-393 94q-182 98 -283 262q-102 160 -102.5 352.5zM137 698q0 -170 92 -313q98 -154 254 -238 q162 -86 359 -86q199 0 358 86q156 84 254 238q90 141 90 313q0 174 -90 316q-96 152 -254 235q-166 90 -358.5 90t-358.5 -90q-158 -84 -254 -235q-92 -143 -92 -316zM401 694.5q0 188.5 135.5 322.5t323.5 134q166 0 297 -111l12 -10v-80h-71v45q-106 84 -238 84 q-160 0 -272.5 -112.5t-112.5 -272t112.5 -271.5t272.5 -112q166 0 281 121l53 -49q-139 -145 -334 -145q-188 0 -323.5 134t-135.5 322.5z" />
<glyph unicode="&#xaa;" horiz-adv-x="802" d="M74 868q0 98 85 164t228 66h270v71q0 184 -219 185q-127 0 -219 -54v-20h-74v57l17 11q96 78 276 77q127 0 210 -61t83 -195v-438h19v-74h-93v58q-106 -92 -270 -92q-137 0 -225 67.5t-88 177.5zM145 868q0 -82 70 -128t172 -46q86 0 162.5 37t107.5 98v195h-270 q-117 0 -179.5 -46t-62.5 -110z" />
<glyph unicode="&#xab;" horiz-adv-x="731" d="M55 446v58l254 311l58 -47l-240 -291v-6l240 -287l-58 -45zM348 446v58l254 311l55 -47l-237 -291v-6l237 -287l-55 -45z" />
<glyph unicode="&#xac;" horiz-adv-x="1095" d="M74 657v74h876v-512h-71v438h-805z" />
<glyph unicode="&#xad;" horiz-adv-x="657" d="M74 512v74h512v-74h-512z" />
<glyph unicode="&#xae;" horiz-adv-x="1681" d="M63.5 698.5q-0.5 192.5 102.5 352.5q100 164 283 262q186 98 393 98t393 -98q180 -96 281 -262q102 -160 102 -352.5t-102 -352.5q-100 -166 -281 -262q-178 -94 -393 -94t-393 94q-182 98 -283 262q-102 160 -102.5 352.5zM137 698q0 -170 92 -313q98 -154 254 -238 q162 -86 359 -86q199 0 358 86q156 84 254 238q90 141 90 313q0 174 -90 316q-96 152 -254 235q-166 90 -358.5 90t-358.5 -90q-158 -84 -254 -235q-92 -143 -92 -316zM586 274v877h305q139 0 217 -75t78 -179q0 -94 -67.5 -160.5t-188.5 -77.5q35 -35 51 -61l135 -213 q16 -25 25.5 -31t27.5 -6h52v-74h-52q-70 0 -116 70l-133 213q-37 59 -60.5 70.5t-105.5 11.5h-97v-365h-71zM657 713h234q104 0 162.5 55t58.5 129t-57.5 128t-163.5 54h-234v-366z" />
<glyph unicode="&#xaf;" horiz-adv-x="731" d="M74 1243v74h583v-74h-583z" />
<glyph unicode="&#xb0;" horiz-adv-x="512" d="M74 1206q0 74 56 129.5t126 55.5t126 -55.5t56 -129.5q0 -72 -56 -127t-126 -55t-126 55.5t-56 126.5zM145 1206q0 -43 35 -75.5t76 -32.5t76 32.5t35 75.5t-36 77t-75 34t-75 -34t-36 -77z" />
<glyph unicode="&#xb1;" horiz-adv-x="950" d="M74 145v74h805v-74h-805zM74 731v74h364v364h74v-364h367v-74h-367v-364h-74v364h-364z" />
<glyph unicode="&#xb2;" horiz-adv-x="657" d="M74 879v61l284 262q154 141 154 242q0 76 -53 130t-129 54t-130.5 -54t-54.5 -130h-71q0 106 74.5 182t181 76t181.5 -76t75 -182q0 -131 -178 -297l-213 -197h317v35h74v-106h-512z" />
<glyph unicode="&#xb3;" horiz-adv-x="657" d="M74 1110h71q0 -72 54.5 -125t130.5 -53t129 52t53 126t-53 126t-129 52v72q57 0 98 40t41 95t-41 94t-98.5 39t-98.5 -39t-41 -94h-73q0 86 62.5 146.5t150.5 60.5t149.5 -60.5t61.5 -146.5q0 -51 -30 -96t-77 -72v-2q68 -29 110 -87t42 -128q0 -104 -75 -177t-181.5 -73 t-181 73t-74.5 177z" />
<glyph unicode="&#xb4;" horiz-adv-x="438" d="M70 1167l202 205l54 -51l-205 -205z" />
<glyph unicode="&#xb5;" d="M111 879v71h108v-71v-568q0 -123 79 -189.5t214 -66.5q178 0 308 136.5t130 338.5v420h74v-876h37v-74h-111v270h-2q-63 -133 -178 -210.5t-258 -77.5q-215 0 -311 139v-68q0 -49 18.5 -123.5t18.5 -107.5q0 -78 -35 -133l-62 39q25 41 25 94q0 25 -10.5 101.5 t-10.5 129.5v258v17v551h-34z" />
<glyph unicode="&#xb6;" horiz-adv-x="876" d="M74 1024q0 121 86 207t207 86h364v-1684h-74v1610h-219v-1610h-71v1098q-121 0 -207 86t-86 207zM145 1024q0 -90 66 -156q63 -63 156 -63v438q-92 0 -156 -63q-66 -66 -66 -156z" />
<glyph unicode="&#xb7;" horiz-adv-x="364" d="M111 483.5q0 26.5 18 46t45 19.5t45.5 -19.5t18.5 -46t-18.5 -45t-45.5 -18.5t-45 18.5t-18 45z" />
<glyph unicode="&#xb8;" horiz-adv-x="821" d="M209 -313l47 28q37 -59 113 -59q51 0 78.5 32.5t27.5 78t-25.5 79t-72.5 33.5q-31 1 -86 -24l-45 12l45 158l53 -15l-25 -84q25 8 58 8q78 0 125 -53t47 -123q0 -74 -55.5 -115.5t-124.5 -41.5q-109 0 -160 86z" />
<glyph unicode="&#xb9;" horiz-adv-x="364" d="M57 1571l99 110h63v-802h-74v682l-34 -37z" />
<glyph unicode="&#xba;" horiz-adv-x="950" d="M74 1024q0 166 117.5 283.5t283.5 117.5t285 -117.5t119 -283.5t-119 -283.5t-285 -117.5t-283.5 117.5t-117.5 283.5zM145 1024q0 -135 97.5 -232.5t232.5 -97.5t232.5 97.5t97.5 232.5t-97.5 232.5t-232.5 97.5t-232.5 -97.5t-97.5 -232.5z" />
<glyph unicode="&#xbb;" horiz-adv-x="731" d="M74 182l237 291v6l-237 287l55 45l256 -307v-58l-256 -311zM367 182l237 291v6l-237 287l55 45l254 -307v-58l-254 -311z" />
<glyph unicode="&#xbc;" horiz-adv-x="1314" d="M8 96l1024 1172l55 -47l-1024 -1172zM57 1278l99 113h63v-805h-74v684l-34 -39zM694 74v59l6 10q152 229 208.5 350t56.5 238h71q0 -129 -54 -254t-189 -332h305v293h71v-293h74v-71h-74v-148h-71v148h-404z" />
<glyph unicode="&#xbd;" horiz-adv-x="1314" d="M8 96l1024 1172l55 -47l-1024 -1172zM57 1278l99 113h63v-805h-74v684l-34 -39zM731 -10l285 260q154 141 153 242v2q0 76 -53 129t-129 53t-129 -53.5t-53 -128.5h-74q0 106 75 181t181.5 75t181 -75t74.5 -181v-2q0 -135 -176 -295l-215 -197h317v33h74v-107h-512v64z " />
<glyph unicode="&#xbe;" horiz-adv-x="1536" d="M74 817h71q0 -72 54.5 -125t130.5 -53t129 52t53 126t-53 126t-129 52v72q57 0 98 40t41 95t-41 94t-98.5 39t-98.5 -39t-41 -94h-73q0 86 62.5 146.5t150.5 60.5t149.5 -60.5t61.5 -146.5q0 -51 -30 -96t-77 -72v-2q68 -29 110 -87t42 -128q0 -104 -75 -177t-181.5 -73 t-181 73t-74.5 177zM229 96l1024 1172l54 -47l-1024 -1172zM913 74v59l7 10q152 229 208 350t56 238h71q0 -129 -54 -254t-189 -332h305v293h74v-293h71v-71h-71v-148h-74v148h-404z" />
<glyph unicode="&#xbf;" horiz-adv-x="876" d="M74 -74q0 94 38 164t91 110t106 73.5t91 74.5t38 94v144h74v-144q0 -70 -38 -122t-92 -85.5t-107.5 -69.5t-91.5 -96.5t-38 -142.5q0 -121 86 -207t207 -86t207 86t86 207h74q0 -150 -107.5 -257t-259 -107t-258 106.5t-106.5 257.5zM412 905.5q0 26.5 18.5 45t45 18.5 t45 -18.5t18.5 -45t-18.5 -45t-45 -18.5t-45 18.5t-18.5 45z" />
<glyph unicode="&#xc0;" horiz-adv-x="1243" d="M55 0v74h29l530 1351h52l557 -1411l-68 -28l-149 381h-727l-144 -367h-80zM307 438h670l-336 850h-2zM481 1759l54 51l202 -204l-53 -52z" />
<glyph unicode="&#xc1;" horiz-adv-x="1243" d="M55 0v74h29l530 1351h52l557 -1411l-68 -28l-149 381h-727l-144 -367h-80zM307 438h670l-336 850h-2zM545 1606l203 204l53 -51l-205 -205z" />
<glyph unicode="&#xc2;" horiz-adv-x="1243" d="M55 0v74h29l530 1351h52l557 -1411l-68 -28l-149 381h-727l-144 -367h-80zM307 438h670l-336 850h-2zM338 1593l272 217h60l272 -217l-45 -57l-254 201h-6l-252 -201z" />
<glyph unicode="&#xc3;" horiz-adv-x="1243" d="M55 0v74h29l530 1351h52l557 -1411l-68 -28l-149 381h-727l-144 -367h-80zM307 438h670l-336 850h-2zM365 1632l8 49q23 123 135 123q49 0 88 -20l113 -62q41 -18 63 -18q49 0 62 63l10 52l71 -15l-8 -49q-23 -123 -135 -123q-49 0 -88 21l-113 63q-37 16 -63 17 q-49 0 -62 -64l-12 -49z" />
<glyph unicode="&#xc4;" horiz-adv-x="1243" d="M55 0v74h29l530 1351h52l557 -1411l-68 -28l-149 381h-727l-144 -367h-80zM307 438h670l-336 850h-2zM367 1654.5q0 26.5 18 45t45 18.5t45.5 -18.5t18.5 -45t-18.5 -45t-45.5 -18.5t-45 18.5t-18 45zM795 1654.5q0 26.5 19.5 45t46 18.5t45 -18.5t18.5 -45t-18.5 -45 t-45 -18.5t-46 18.5t-19.5 45z" />
<glyph unicode="&#xc5;" horiz-adv-x="1243" d="M55 0v74h29l530 1351h52l557 -1411l-68 -28l-149 381h-727l-144 -367h-80zM307 438h670l-336 850h-2zM457 1646.5q0 71.5 59 127.5q58 55 123 55q66 0 125 -55.5t59 -126.5q0 -74 -59 -129.5t-125 -55.5q-61 0 -123 58q-59 55 -59 126.5zM512 1647q0 -47 41 -88t86 -41 q43 0 88 41q41 41 41 88q0 45 -41 86q-45 41 -88 41q-41 0 -86 -41q-41 -41 -41 -86z" />
<glyph unicode="&#xc6;" horiz-adv-x="1755" d="M37 0v74h14l660 1317h899v-111h-74v37h-604v-586h311v-74h-311v-583h678v37h71v-111h-821v367h-579l-187 -367h-57zM315 438h545v879h-102z" />
<glyph unicode="&#xc7;" horiz-adv-x="1280" d="M74 694q0 295 209 505t503 210q219 0 404 -125l16 -12v-66h-71v27q-162 102 -349 102q-264 0 -452.5 -188.5t-188.5 -452.5t188.5 -451.5t452.5 -187.5q207 0 369 117l45 -59q-184 -131 -414 -131q-295 0 -503.5 208.5t-208.5 503.5zM530 -342l48 29q37 -59 112 -60 q51 0 79 33t28 78t-26 78.5t-73 33.5q-31 1 -86 -24l-45 12l45 158l54 -14l-25 -84q25 8 57 8q78 0 125 -53.5t47 -122.5q0 -74 -55 -116t-125 -42q-109 0 -160 86z" />
<glyph unicode="&#xc8;" d="M111 1317v74h913v-111h-74v37h-731v-586h438v-74h-438v-583h805v37h74v-111h-953v1317h-34zM426 1759l53 51l203 -204l-51 -52z" />
<glyph unicode="&#xc9;" d="M111 1317v74h913v-111h-74v37h-731v-586h438v-74h-438v-583h805v37h74v-111h-953v1317h-34zM492 1606l202 204l54 -51l-205 -205z" />
<glyph unicode="&#xca;" d="M111 1317v74h913v-111h-74v37h-731v-586h438v-74h-438v-583h805v37h74v-111h-953v1317h-34zM283 1591l272 219h59l273 -219l-45 -55l-254 201h-6l-252 -201z" />
<glyph unicode="&#xcb;" d="M111 1317v74h913v-111h-74v37h-731v-586h438v-74h-438v-583h805v37h74v-111h-953v1317h-34zM311 1654.5q0 26.5 18.5 45t45 18.5t45 -18.5t18.5 -45t-18.5 -46t-45 -19.5t-45 19.5t-18.5 46zM739 1654.5q0 26.5 19.5 45t46 18.5t45 -18.5t18.5 -45t-18.5 -46t-45 -19.5 t-46 19.5t-19.5 46z" />
<glyph unicode="&#xcc;" horiz-adv-x="364" d="M25 1759l53 51l203 -204l-54 -52zM145 0v1391h74v-1391h-74z" />
<glyph unicode="&#xcd;" horiz-adv-x="364" d="M88 1606l203 204l53 -51l-205 -205zM145 0v1391h74v-1391h-74z" />
<glyph unicode="&#xce;" horiz-adv-x="364" d="M-119 1593l273 217h59l272 -217l-47 -57l-252 201h-6l-254 -201zM145 0v1391h74v-1391h-74z" />
<glyph unicode="&#xcf;" horiz-adv-x="364" d="M-92 1654.5q0 26.5 19.5 45t46 18.5t45 -18.5t18.5 -45t-18.5 -45t-45 -18.5t-46 18.5t-19.5 45zM145 0v1391h74v-1391h-74zM338 1654.5q0 26.5 18.5 45t45 18.5t46 -18.5t19.5 -45t-19.5 -45t-46 -18.5t-45 18.5t-18.5 45z" />
<glyph unicode="&#xd0;" horiz-adv-x="1388" d="M74 657v74h71v586h-34v74h34h39h439q289 0 491.5 -204t202.5 -492.5t-203 -491.5t-491 -203h-478v657h-71zM219 74h404q258 0 439 181t181 439t-181 440.5t-439 182.5h-404v-586h367v-74h-367v-583z" />
<glyph unicode="&#xd1;" horiz-adv-x="1314" d="M111 1317v74h108l879 -1264v1264h71v-1391h-71l-879 1264v-1264h-74v1317h-34zM418 1632l10 49q23 123 135 123q49 0 88 -20l113 -62q41 -18 63 -18q49 0 62 63l10 52l72 -15l-8 -49q-23 -123 -136 -123q-49 0 -88 21l-114 63q-37 16 -62 17q-49 0 -61 -64l-13 -49z" />
<glyph unicode="&#xd2;" horiz-adv-x="1607" d="M74 694q0 303 214 517t517 214t517 -214t214 -517t-214 -517t-517 -214t-517 214t-214 517zM145 694.5q0 -272.5 192.5 -465t467.5 -192.5q272 0 464.5 192.5t192.5 464.5q0 274 -192.5 467t-465 193t-466 -193.5t-193.5 -466zM645 1759l53 51l203 -204l-53 -52z" />
<glyph unicode="&#xd3;" horiz-adv-x="1570" d="M74 694q0 295 209 505t503.5 210t503.5 -210t209 -505t-209 -503.5t-503.5 -208.5t-503.5 208.5t-209 503.5zM145 694q0 -264 188.5 -451.5t453 -187.5t451.5 187.5t187 451.5t-187 452.5t-451.5 188.5t-453 -188.5t-188.5 -452.5zM692 1606l203 204l53 -51l-205 -205z " />
<glyph unicode="&#xd4;" horiz-adv-x="1607" d="M74 694q0 303 214 517t517 214t517 -214t214 -517t-214 -517t-517 -214t-517 214t-214 517zM145 694.5q0 -272.5 192.5 -465t467.5 -192.5q272 0 464.5 192.5t192.5 464.5q0 274 -192.5 467t-465 193t-466 -193.5t-193.5 -466zM504 1593l272 217h58l272 -217l-45 -57 l-252 201h-8l-252 -201z" />
<glyph unicode="&#xd5;" horiz-adv-x="1607" d="M74 694q0 303 214 517t517 214t517 -214t214 -517t-214 -517t-517 -214t-517 214t-214 517zM145 694.5q0 -272.5 192.5 -465t467.5 -192.5q272 0 464.5 192.5t192.5 464.5q0 274 -192.5 467t-465 193t-466 -193.5t-193.5 -466zM528 1632l9 49q23 123 137 123q47 0 86 -20 l114 -62q41 -18 62 -18q51 0 63 63l11 52l71 -15l-10 -49q-23 -123 -135 -123q-49 0 -88 21l-113 63q-37 16 -61 17q-51 0 -64 -64l-10 -49z" />
<glyph unicode="&#xd6;" horiz-adv-x="1607" d="M74 694q0 303 214 517t517 214t517 -214t214 -517t-214 -517t-517 -214t-517 214t-214 517zM145 694.5q0 -272.5 192.5 -465t467.5 -192.5q272 0 464.5 192.5t192.5 464.5q0 274 -192.5 467t-465 193t-466 -193.5t-193.5 -466zM530 1654.5q0 26.5 18.5 45t45.5 18.5 t45 -18.5t18 -45t-18 -45t-45 -18.5t-45.5 18.5t-18.5 45zM961 1654.5q0 26.5 18 45t45 18.5t45 -18.5t18 -45t-18 -45t-45 -18.5t-45 18.5t-18 45z" />
<glyph unicode="&#xd7;" horiz-adv-x="657" d="M70 453l209 204l-209 207l53 54l207 -209l207 209l51 -54l-207 -207l209 -204l-53 -54l-207 207l-207 -207z" />
<glyph unicode="&#xd8;" horiz-adv-x="1570" d="M74 694q0 295 209 505t503 210q272 0 480 -186l135 135l51 -51l-135 -136q182 -205 182 -477q0 -295 -209 -503.5t-504 -208.5q-270 0 -477 184l-137 -137l-51 51l137 137q-184 205 -184 477zM145 694q0 -242 164 -426l903 903q-180 164 -426 164q-264 0 -452.5 -188.5 t-188.5 -452.5zM360 217q182 -162 426 -162q264 0 451.5 187.5t187.5 451.5q1 242 -161 424z" />
<glyph unicode="&#xd9;" horiz-adv-x="1314" d="M111 1317v74h108v-916q0 -180 128 -309t310.5 -129t311.5 129t129 309v916h71v-916q0 -213 -150.5 -362.5t-361.5 -149.5t-361.5 149.5t-150.5 362.5v842h-34zM500 1759l53 51l203 -204l-54 -52z" />
<glyph unicode="&#xda;" horiz-adv-x="1314" d="M111 1317v74h108v-916q0 -180 128 -309t310.5 -129t311.5 129t129 309v916h71v-916q0 -213 -150.5 -362.5t-361.5 -149.5t-361.5 149.5t-150.5 362.5v842h-34zM563 1606l203 204l53 -51l-205 -205z" />
<glyph unicode="&#xdb;" horiz-adv-x="1314" d="M111 1317v74h108v-916q0 -180 128 -309t310.5 -129t311.5 129t129 309v916h71v-916q0 -213 -150.5 -362.5t-361.5 -149.5t-361.5 149.5t-150.5 362.5v842h-34zM356 1593l273 217h59l273 -217l-48 -57l-251 201h-7l-254 -201z" />
<glyph unicode="&#xdc;" horiz-adv-x="1314" d="M111 1317v74h108v-916q0 -180 128 -309t310.5 -129t311.5 129t129 309v916h71v-916q0 -213 -150.5 -362.5t-361.5 -149.5t-361.5 149.5t-150.5 362.5v842h-34zM385 1654.5q0 26.5 18.5 45t45 18.5t45 -18.5t18.5 -45t-18.5 -45t-45 -18.5t-45 18.5t-18.5 45zM813 1654.5 q0 26.5 19.5 45t46 18.5t45 -18.5t18.5 -45t-18.5 -45t-45 -18.5t-46 18.5t-19.5 45z" />
<glyph unicode="&#xdd;" horiz-adv-x="1243" d="M55 1317v74h74l492 -807h2l497 825l66 -37l-529 -872v-500h-71v500l-496 817h-35zM526 1606l203 204l53 -51l-204 -205z" />
<glyph unicode="&#xde;" d="M145 0v1391h74v-148h404q199 0 337 -138t138 -337t-138.5 -337t-336.5 -138h-404v-293h-74zM219 367h404q166 0 283.5 117.5t117.5 283.5t-118 283.5t-283 117.5h-404v-802z" />
<glyph unicode="&#xdf;" horiz-adv-x="1095" d="M74 879v71h71v148q0 129 92.5 220t219.5 91q129 0 220 -91t91 -220q0 -158 -105.5 -244t-224.5 -102v-7q6 -2 81 -30.5t109 -45t106.5 -51t112.5 -69.5t87 -83t68.5 -105.5t21.5 -122.5q0 -115 -93 -185.5t-237 -70.5q-102 0 -200.5 40.5t-157.5 120.5l-6 9v49h71v-23 q102 -123 293 -123q106 0 181 48.5t75 134.5q0 53 -18.5 102t-60.5 89t-78.5 69.5t-102 62.5t-102.5 49.5t-109.5 44t-91.5 35.5l-20 8v115h34q33 0 78 15.5t96.5 45t85 89t33.5 135.5q0 98 -69.5 167.5t-167.5 69.5q-96 0 -167 -69.5t-71 -167.5v-1098h-74v879h-71z" />
<glyph unicode="&#xe0;" horiz-adv-x="1095" d="M74 283q0 125 106.5 214t294.5 89h404v53q0 139 -94.5 198.5t-227.5 59.5q-145 0 -264 -55v-37h-74v80q133 84 338 84q166 0 279.5 -80t113.5 -250v-565h37v-74h-108v150h-2q-70 -80 -180.5 -124t-221.5 -44q-166 0 -283.5 88t-117.5 213zM145 283q0 -94 97.5 -161 t232.5 -67q121 0 241 52.5t163 138.5v266h-404q-160 0 -245 -68.5t-85 -160.5zM397 1321l54 51l202 -205l-51 -51z" />
<glyph unicode="&#xe1;" horiz-adv-x="1095" d="M74 283q0 125 106.5 214t294.5 89h404v53q0 139 -94.5 198.5t-227.5 59.5q-145 0 -264 -55v-37h-74v80q133 84 338 84q166 0 279.5 -80t113.5 -250v-565h37v-74h-108v150h-2q-70 -80 -180.5 -124t-221.5 -44q-166 0 -283.5 88t-117.5 213zM145 283q0 -94 97.5 -161 t232.5 -67q121 0 241 52.5t163 138.5v266h-404q-160 0 -245 -68.5t-85 -160.5zM463 1167l203 205l53 -51l-205 -205z" />
<glyph unicode="&#xe2;" horiz-adv-x="1095" d="M74 283q0 125 106.5 214t294.5 89h404v53q0 139 -94.5 198.5t-227.5 59.5q-145 0 -264 -55v-37h-74v80q133 84 338 84q166 0 279.5 -80t113.5 -250v-565h37v-74h-108v150h-2q-70 -80 -180.5 -124t-221.5 -44q-166 0 -283.5 88t-117.5 213zM145 283q0 -94 97.5 -161 t232.5 -67q121 0 241 52.5t163 138.5v266h-404q-160 0 -245 -68.5t-85 -160.5zM256 1153l272 219h60l272 -219l-45 -55l-254 200h-6l-252 -200z" />
<glyph unicode="&#xe3;" horiz-adv-x="1095" d="M74 283q0 125 106.5 214t294.5 89h404v53q0 139 -94.5 198.5t-227.5 59.5q-145 0 -264 -55v-37h-74v80q133 84 338 84q166 0 279.5 -80t113.5 -250v-565h37v-74h-108v150h-2q-70 -80 -180.5 -124t-221.5 -44q-166 0 -283.5 88t-117.5 213zM145 283q0 -94 97.5 -161 t232.5 -67q121 0 241 52.5t163 138.5v266h-404q-160 0 -245 -68.5t-85 -160.5zM281 1194l10 49q23 123 135 123q49 0 88 -20l113 -62q41 -18 61 -18q51 0 64 63l10 49l72 -12l-9 -49q-23 -123 -137 -123q-47 0 -86 20l-115 62q-41 18 -61 18q-51 0 -64 -63l-10 -49z" />
<glyph unicode="&#xe4;" horiz-adv-x="1095" d="M74 283q0 125 106.5 214t294.5 89h404v53q0 139 -94.5 198.5t-227.5 59.5q-145 0 -264 -55v-37h-74v80q133 84 338 84q166 0 279.5 -80t113.5 -250v-565h37v-74h-108v150h-2q-70 -80 -180.5 -124t-221.5 -44q-166 0 -283.5 88t-117.5 213zM145 283q0 -94 97.5 -161 t232.5 -67q121 0 241 52.5t163 138.5v266h-404q-160 0 -245 -68.5t-85 -160.5zM285 1216.5q0 26.5 18.5 45t45 18.5t45 -18.5t18.5 -45t-18.5 -46t-45 -19.5t-45 19.5t-18.5 46zM713 1216.5q0 26.5 19.5 45t46 18.5t45 -18.5t18.5 -45t-18.5 -46t-45 -19.5t-46 19.5 t-19.5 46z" />
<glyph unicode="&#xe5;" horiz-adv-x="1095" d="M74 283q0 125 106.5 214t294.5 89h404v53q0 139 -94.5 198.5t-227.5 59.5q-145 0 -264 -55v-37h-74v80q133 84 338 84q166 0 279.5 -80t113.5 -250v-565h37v-74h-108v150h-2q-70 -80 -180.5 -124t-221.5 -44q-166 0 -283.5 88t-117.5 213zM145 283q0 -94 97.5 -161 t232.5 -67q121 0 241 52.5t163 138.5v266h-404q-160 0 -245 -68.5t-85 -160.5zM375 1206q0 74 57 129q60 56 125.5 56t124.5 -56q57 -55 57 -129q0 -72 -57 -127q-59 -55 -125 -55q-63 0 -125 57q-57 55 -57 125zM428 1206q0 -47 41 -88q39 -39 88 -39q45 0 88 39 q41 41 41 88t-41 88q-45 41 -88 41t-88 -41q-41 -41 -41 -88z" />
<glyph unicode="&#xe6;" horiz-adv-x="1863" d="M74 246q0 121 110.5 193.5t290.5 72.5h404v127q0 139 -94.5 198.5t-227.5 59.5q-145 0 -264 -55v-37h-74v80q133 84 338 84q143 0 252 -60.5t135 -187.5q66 113 179.5 180.5t248.5 67.5q248 0 397 -203l21 -27l-25 -22q-10 -8 -63 -56.5t-90 -77t-93.5 -67.5 t-112.5 -58.5t-108 -19.5h-346q14 -162 135 -272.5t285 -110.5q180 0 307 133l54 -49q-147 -158 -361 -157q-131 0 -242.5 63.5t-179.5 171.5v-217h-71v150h-2q-70 -80 -180.5 -124t-221.5 -44q-180 0 -290.5 72.5t-110.5 191.5zM145 246q0 -86 90.5 -138.5t239.5 -52.5 q121 0 241 52.5t163 138.5v192h-404q-150 0 -240 -53t-90 -139zM952 512h346q23 0 46.5 4t49 16.5t45 20.5t48.5 29.5t43 30t46 36t39 33.5t41 37l34 31q-127 147 -318 147q-162 0 -283.5 -111.5t-136.5 -273.5z" />
<glyph unicode="&#xe7;" horiz-adv-x="987" d="M74 475q0 205 144 349.5t349 144.5q188 0 334 -131l12 -11v-59h-71v27q-123 102 -275 102q-174 0 -298 -124t-124 -298t124 -297t298 -123q180 0 307 133l56 -51q-150 -156 -363 -155h-26l-19 -66q18 6 56 6q78 0 125 -52t47 -122q0 -74 -54.5 -116t-124.5 -42 q-111 0 -161 86l47 27q35 -57 114 -57q51 0 78 31.5t27 76.5t-25.5 80t-72.5 35q-23 0 -84 -27l-48 13l39 135q-176 29 -293.5 166t-117.5 319z" />
<glyph unicode="&#xe8;" horiz-adv-x="1058" d="M74 475q0 205 145.5 349.5t347.5 144.5q248 0 398 -203l20 -27l-24 -22q-10 -8 -63.5 -56.5t-90.5 -77t-93.5 -67.5t-112.5 -58.5t-107 -19.5h-347q14 -162 135 -272.5t285 -110.5q180 0 307 133l54 -49q-147 -158 -361 -157q-205 0 -349 144t-144 349zM147 512h347 q23 0 46 4t48.5 16.5t45 20.5t48.5 29.5t43 30t46 36t39 33.5t41 37l34 31q-127 147 -318 147q-162 0 -283.5 -111.5t-136.5 -273.5zM426 1321l53 51l203 -205l-51 -51z" />
<glyph unicode="&#xe9;" horiz-adv-x="1058" d="M74 475q0 205 145.5 349.5t347.5 144.5q248 0 398 -203l20 -27l-24 -22q-10 -8 -63.5 -56.5t-90.5 -77t-93.5 -67.5t-112.5 -58.5t-107 -19.5h-347q14 -162 135 -272.5t285 -110.5q180 0 307 133l54 -49q-147 -158 -361 -157q-205 0 -349 144t-144 349zM147 512h347 q23 0 46 4t48.5 16.5t45 20.5t48.5 29.5t43 30t46 36t39 33.5t41 37l34 31q-127 147 -318 147q-162 0 -283.5 -111.5t-136.5 -273.5zM492 1167l202 205l54 -51l-205 -205z" />
<glyph unicode="&#xea;" horiz-adv-x="1058" d="M74 475q0 205 145.5 349.5t347.5 144.5q248 0 398 -203l20 -27l-24 -22q-10 -8 -63.5 -56.5t-90.5 -77t-93.5 -67.5t-112.5 -58.5t-107 -19.5h-347q14 -162 135 -272.5t285 -110.5q180 0 307 133l54 -49q-147 -158 -361 -157q-205 0 -349 144t-144 349zM147 512h347 q23 0 46 4t48.5 16.5t45 20.5t48.5 29.5t43 30t46 36t39 33.5t41 37l34 31q-127 147 -318 147q-162 0 -283.5 -111.5t-136.5 -273.5zM283 1153l272 219h59l273 -219l-45 -55l-254 200h-6l-252 -200z" />
<glyph unicode="&#xeb;" horiz-adv-x="1058" d="M74 475q0 205 145.5 349.5t347.5 144.5q248 0 398 -203l20 -27l-24 -22q-10 -8 -63.5 -56.5t-90.5 -77t-93.5 -67.5t-112.5 -58.5t-107 -19.5h-347q14 -162 135 -272.5t285 -110.5q180 0 307 133l54 -49q-147 -158 -361 -157q-205 0 -349 144t-144 349zM147 512h347 q23 0 46 4t48.5 16.5t45 20.5t48.5 29.5t43 30t46 36t39 33.5t41 37l34 31q-127 147 -318 147q-162 0 -283.5 -111.5t-136.5 -273.5zM311 1216.5q0 26.5 18.5 45t45 18.5t45 -18.5t18.5 -45t-18.5 -46t-45 -19.5t-45 19.5t-18.5 46zM739 1216.5q0 26.5 19.5 45t46 18.5 t45 -18.5t18.5 -45t-18.5 -46t-45 -19.5t-46 19.5t-19.5 46z" />
<glyph unicode="&#xec;" horiz-adv-x="364" d="M14 1321l54 51l202 -205l-53 -51zM111 879v71h108v-950h-74v879h-34z" />
<glyph unicode="&#xed;" horiz-adv-x="364" d="M78 1167l205 205l51 -51l-205 -205zM111 879v71h108v-950h-74v879h-34z" />
<glyph unicode="&#xee;" horiz-adv-x="364" d="M-63 1208l217 164h59l217 -164l-45 -57l-199 147h-6l-198 -147zM111 879v71h108v-950h-74v879h-34z" />
<glyph unicode="&#xef;" horiz-adv-x="364" d="M-27 1216.5q0 26.5 18.5 45t45 18.5t45 -18.5t18.5 -45t-18.5 -46t-45 -19.5t-45 19.5t-18.5 46zM111 879v71h108v-950h-74v879h-34zM264 1216.5q0 26.5 19.5 45t46 18.5t45 -18.5t18.5 -45t-18.5 -46t-45 -19.5t-46 19.5t-19.5 46z" />
<glyph unicode="&#xf0;" horiz-adv-x="950" d="M74 475q0 201 110.5 347.5t272.5 146.5q199 0 327 -185q-37 264 -166 387l-169 -63l-23 61l131 52q-72 43 -131 63l27 68q111 -39 186 -99l152 62l26 -70l-125 -45q186 -205 187 -725q0 -201 -123 -347t-299 -146q-162 0 -272.5 146t-110.5 347zM145 475 q0 -176 93.5 -298t218.5 -122q143 0 245.5 122t102.5 298t-102.5 299t-245.5 123q-127 0 -219.5 -123t-92.5 -299z" />
<glyph unicode="&#xf1;" d="M111 879v71h108v-270h2q63 133 178 211t258 78q166 0 266.5 -89t100.5 -241v-565h37v-74h-111v74v565q0 123 -78.5 190.5t-214.5 67.5q-178 0 -308 -137t-130 -340v-420h-74v879h-34zM309 1194l10 49q23 123 136 123q49 0 88 -20l112 -62q41 -18 62 -18q51 0 63 63l11 49 l71 -12l-8 -49q-23 -123 -137 -123q-47 0 -86 20l-115 62q-41 18 -61 18q-51 0 -64 -63l-10 -49z" />
<glyph unicode="&#xf2;" horiz-adv-x="1132" d="M74 475q0 205 144 349.5t349 144.5t349.5 -144.5t144.5 -349.5t-144.5 -349t-349.5 -144t-349 144t-144 349zM145 475q0 -174 124 -297t298 -123t297 123t123 297t-123 298t-297 124t-298 -124t-124 -298zM408 1321l53 51l203 -205l-52 -51z" />
<glyph unicode="&#xf3;" horiz-adv-x="1132" d="M74 475q0 205 144 349.5t349 144.5t349.5 -144.5t144.5 -349.5t-144.5 -349t-349.5 -144t-349 144t-144 349zM145 475q0 -174 124 -297t298 -123t297 123t123 297t-123 298t-297 124t-298 -124t-124 -298zM473 1167l203 205l53 -51l-205 -205z" />
<glyph unicode="&#xf4;" horiz-adv-x="1132" d="M74 475q0 205 144 349.5t349 144.5t349.5 -144.5t144.5 -349.5t-144.5 -349t-349.5 -144t-349 144t-144 349zM145 475q0 -174 124 -297t298 -123t297 123t123 297t-123 298t-297 124t-298 -124t-124 -298zM264 1153l273 219h59l272 -219l-45 -55l-254 200h-6l-252 -200z " />
<glyph unicode="&#xf5;" horiz-adv-x="1132" d="M74 475q0 205 144 349.5t349 144.5t349.5 -144.5t144.5 -349.5t-144.5 -349t-349.5 -144t-349 144t-144 349zM145 475q0 -174 124 -297t298 -123t297 123t123 297t-123 298t-297 124t-298 -124t-124 -298zM291 1194l10 49q23 123 135 123q49 0 88 -20l113 -62 q41 -18 61 -18q51 0 64 63l10 49l72 -12l-8 -49q-23 -123 -138 -123q-47 0 -86 20l-114 62q-41 18 -62 18q-51 0 -63 -63l-11 -49z" />
<glyph unicode="&#xf6;" horiz-adv-x="1132" d="M74 475q0 205 144 349.5t349 144.5t349.5 -144.5t144.5 -349.5t-144.5 -349t-349.5 -144t-349 144t-144 349zM145 475q0 -174 124 -297t298 -123t297 123t123 297t-123 298t-297 124t-298 -124t-124 -298zM293 1216.5q0 26.5 18.5 45t45 18.5t45 -18.5t18.5 -45 t-18.5 -46t-45 -19.5t-45 19.5t-18.5 46zM721 1216.5q0 26.5 19.5 45t46 18.5t45 -18.5t18.5 -45t-18.5 -46t-45 -19.5t-46 19.5t-19.5 46z" />
<glyph unicode="&#xf7;" horiz-adv-x="802" d="M74 731v74h657v-74h-657zM338 538.5q0 26.5 18.5 46t45 19.5t46 -19.5t19.5 -46t-19.5 -45t-46 -18.5t-45 18.5t-18.5 45zM338 997.5q0 26.5 18.5 45t45 18.5t46 -18.5t19.5 -45t-19.5 -46t-46 -19.5t-45 19.5t-18.5 46z" />
<glyph unicode="&#xf8;" horiz-adv-x="1132" d="M74 475q0 205 144 349.5t349 144.5q186 0 322 -119l74 72l51 -52l-72 -73q119 -136 119 -322q0 -205 -144.5 -349t-349.5 -144q-186 0 -321 118l-74 -71l-51 51l72 74q-119 135 -119 321zM145 475q0 -150 101 -270l592 592q-121 100 -271 100q-174 0 -298 -124t-124 -298 zM297 154q119 -98 270 -99q174 0 297 123t123 297q0 151 -98 270z" />
<glyph unicode="&#xf9;" d="M111 879v71h108v-71v-568q0 -123 79 -189.5t214 -66.5q178 0 308 136.5t130 338.5v420h74v-876h37v-74h-111v270h-2q-63 -133 -178 -210.5t-258 -77.5q-166 0 -266.5 89t-100.5 240v568h-34zM426 1321l53 51l203 -205l-51 -51z" />
<glyph unicode="&#xfa;" d="M111 879v71h108v-71v-568q0 -123 79 -189.5t214 -66.5q178 0 308 136.5t130 338.5v420h74v-876h37v-74h-111v270h-2q-63 -133 -178 -210.5t-258 -77.5q-166 0 -266.5 89t-100.5 240v568h-34zM492 1167l202 205l54 -51l-205 -205z" />
<glyph unicode="&#xfb;" d="M111 879v71h108v-71v-568q0 -123 79 -189.5t214 -66.5q178 0 308 136.5t130 338.5v420h74v-876h37v-74h-111v270h-2q-63 -133 -178 -210.5t-258 -77.5q-166 0 -266.5 89t-100.5 240v568h-34zM283 1153l272 219h59l273 -219l-45 -55l-254 200h-6l-252 -200z" />
<glyph unicode="&#xfc;" d="M111 879v71h108v-71v-568q0 -123 79 -189.5t214 -66.5q178 0 308 136.5t130 338.5v420h74v-876h37v-74h-111v270h-2q-63 -133 -178 -210.5t-258 -77.5q-166 0 -266.5 89t-100.5 240v568h-34zM311 1216.5q0 26.5 18.5 45t45 18.5t45 -18.5t18.5 -45t-18.5 -46t-45 -19.5 t-45 19.5t-18.5 46zM739 1216.5q0 26.5 19.5 45t46 18.5t45 -18.5t18.5 -45t-18.5 -46t-45 -19.5t-46 19.5t-19.5 46z" />
<glyph unicode="&#xfd;" horiz-adv-x="1095" d="M37 -258h74v-16q66 -92 153 -93q102 0 178 156l66 137l-422 953h-31v71h78l416 -936h2l436 908v28h74v-47l-553 -1147q-92 -195 -244 -194q-68 0 -127 40t-94 93l-6 8v39zM455 1167l202 205l54 -51l-205 -205z" />
<glyph unicode="&#xfe;" d="M111 1317v74h108v-672h2q59 115 165 182.5t237 67.5q197 0 336 -145.5t139 -348.5t-139.5 -348t-335.5 -145q-131 0 -236.5 67.5t-165.5 181.5h-2v-669h-74v1755h-34zM219 475q0 -174 119 -297t284.5 -123t283.5 123t118 297t-118 298t-283.5 124t-284.5 -124t-119 -298z " />
<glyph unicode="&#xff;" horiz-adv-x="1095" d="M37 -258h74v-16q66 -92 153 -93q102 0 178 156l66 137l-422 953h-31v71h78l416 -936h2l436 908v28h74v-47l-553 -1147q-92 -195 -244 -194q-68 0 -127 40t-94 93l-6 8v39zM274 1216.5q0 26.5 18.5 45t45.5 18.5t45 -18.5t18 -45t-18 -46t-45 -19.5t-45.5 19.5t-18.5 46z M705 1216.5q0 26.5 18 45t45 18.5t45 -18.5t18 -45t-18 -46t-45 -19.5t-45 19.5t-18 46z" />
<glyph unicode="&#x152;" horiz-adv-x="1755" d="M74 694.5q0 288.5 202.5 492.5t491.5 204h842v-111h-74v37h-586v-586h367v-74h-367v-583h660v37h71v-111h-913q-289 0 -491.5 203t-202.5 491.5zM145 694q0 -258 182.5 -439t440.5 -181h111v1243h-111q-258 0 -440.5 -182.5t-182.5 -440.5z" />
<glyph unicode="&#x153;" horiz-adv-x="1974" d="M74 475q0 205 144 349.5t349 144.5q154 0 278 -85t179 -222q55 137 180 222t277 85q121 0 225 -54.5t174 -148.5l21 -27l-27 -22q-10 -10 -63.5 -57.5t-90.5 -76t-92 -67.5t-111.5 -58.5t-107.5 -19.5h-346q14 -162 134 -272.5t284 -110.5q180 0 307 133l53 -49 q-147 -158 -360 -157q-154 0 -278 85t-179 222q-55 -137 -179 -222t-278 -85q-205 0 -349 144t-144 349zM145 475q0 -174 124 -297t298 -123t297 123t123 297t-123 298t-297 124t-298 -124t-124 -298zM1063 512h346q23 0 46.5 4t49 16.5t45 20.5t48 29.5t43 30t46 36 t39 33.5t40.5 37l34 31q-127 147 -319 147q-162 0 -283 -111.5t-135 -273.5z" />
<glyph unicode="&#x178;" horiz-adv-x="1243" d="M55 1317v74h74l492 -807h2l495 821l64 -37l-525 -868v-500h-71v500l-496 817h-35zM348 1654.5q0 26.5 18.5 45t45 18.5t45 -18.5t18.5 -45t-18.5 -46t-45 -19.5t-45 19.5t-18.5 46zM776 1654.5q0 26.5 19.5 45t46 18.5t45 -18.5t18.5 -45t-18.5 -46t-45 -19.5t-46 19.5 t-19.5 46z" />
<glyph unicode="&#x2c6;" horiz-adv-x="802" d="M100 1153l273 219h59l273 -219l-48 -55l-251 200h-7l-254 -200z" />
<glyph unicode="&#x2dc;" horiz-adv-x="583" d="M16 1194l9 49q23 123 137 123q47 0 86 -20l114 -62q41 -18 62 -18q51 0 63 63l11 49l71 -12l-10 -49q-23 -123 -135 -123q-49 0 -88 20l-113 62q-41 18 -61 18q-51 0 -64 -63l-10 -49z" />
<glyph unicode="&#x2000;" horiz-adv-x="914" />
<glyph unicode="&#x2001;" horiz-adv-x="1829" />
<glyph unicode="&#x2002;" horiz-adv-x="914" />
<glyph unicode="&#x2003;" horiz-adv-x="1829" />
<glyph unicode="&#x2004;" horiz-adv-x="609" />
<glyph unicode="&#x2005;" horiz-adv-x="457" />
<glyph unicode="&#x2006;" horiz-adv-x="304" />
<glyph unicode="&#x2007;" horiz-adv-x="304" />
<glyph unicode="&#x2008;" horiz-adv-x="228" />
<glyph unicode="&#x2009;" horiz-adv-x="365" />
<glyph unicode="&#x200a;" horiz-adv-x="101" />
<glyph unicode="&#x2010;" horiz-adv-x="657" d="M74 512v74h512v-74h-512z" />
<glyph unicode="&#x2011;" horiz-adv-x="657" d="M74 512v74h512v-74h-512z" />
<glyph unicode="&#x2012;" horiz-adv-x="657" d="M74 512v74h512v-74h-512z" />
<glyph unicode="&#x2013;" horiz-adv-x="950" d="M74 512v74h805v-74h-805z" />
<glyph unicode="&#x2014;" horiz-adv-x="1826" d="M74 512v74h1681v-74h-1681z" />
<glyph unicode="&#x2018;" horiz-adv-x="364" d="M127 1188q0 133 123 256l33 -33q-72 -72 -72 -162q18 -6 31.5 -23.5t13.5 -37.5q0 -27 -18.5 -45.5t-45 -18.5t-46 18.5t-19.5 45.5z" />
<glyph unicode="&#x2019;" horiz-adv-x="364" d="M82 1157q74 74 74 164q-45 14 -45 59q0 27 18 45.5t45 18.5t45.5 -18.5t18.5 -45.5q0 -133 -123 -256z" />
<glyph unicode="&#x201a;" horiz-adv-x="364" d="M82 -178q74 74 74 164q-45 14 -45 59q0 27 18 46.5t45 19.5t45.5 -19.5t18.5 -46.5q0 -133 -123 -256z" />
<glyph unicode="&#x201c;" horiz-adv-x="583" d="M127 1188q0 133 123 256l33 -33q-72 -72 -72 -162q18 -6 31.5 -23.5t13.5 -37.5q0 -27 -18.5 -45.5t-45 -18.5t-46 18.5t-19.5 45.5zM348 1188q0 135 121 256l35 -33q-74 -74 -74 -162q18 -6 31.5 -23.5t13.5 -37.5q0 -27 -18.5 -45.5t-45 -18.5t-45 18.5t-18.5 45.5z " />
<glyph unicode="&#x201d;" horiz-adv-x="583" d="M82 1157q74 74 74 164q-45 14 -45 59q0 27 18 46.5t45 19.5t45.5 -19.5t18.5 -46.5q0 -133 -123 -256zM301 1157q74 74 74 164q-45 14 -45 59q0 27 18.5 46.5t45 19.5t45 -19.5t18.5 -46.5q0 -133 -123 -256z" />
<glyph unicode="&#x201e;" horiz-adv-x="583" d="M82 -178q74 74 74 164q-45 14 -45 59q0 27 18 46.5t45 19.5t45.5 -19.5t18.5 -46.5q0 -133 -123 -256zM301 -178q74 74 74 164q-45 14 -45 59q0 27 18.5 46.5t45 19.5t45 -19.5t18.5 -46.5q0 -133 -123 -256z" />
<glyph unicode="&#x2022;" horiz-adv-x="512" d="M74 475q0 76 53 129t129 53t129 -53t53 -129t-53 -129t-129 -53t-129 53t-53 129z" />
<glyph unicode="&#x2026;" horiz-adv-x="950" d="M111 45q0 27 18 46.5t45 19.5t45.5 -19.5t18.5 -46.5t-18.5 -45t-45.5 -18t-45 18t-18 45zM401 45q0 27 19.5 46.5t46.5 19.5t45 -19.5t18 -46.5t-18 -45t-45 -18t-46.5 18t-19.5 45zM694 45q0 27 19.5 46.5t46 19.5t45 -19.5t18.5 -46.5t-18.5 -45t-45 -18t-46 18 t-19.5 45z" />
<glyph unicode="&#x202f;" horiz-adv-x="365" />
<glyph unicode="&#x2039;" horiz-adv-x="438" d="M55 446v58l254 311l58 -47l-240 -291v-6l240 -287l-58 -45z" />
<glyph unicode="&#x203a;" horiz-adv-x="438" d="M74 184l237 287v6l-237 291l55 47l256 -311v-58l-256 -307z" />
<glyph unicode="&#x205f;" horiz-adv-x="457" />
<glyph unicode="&#x20ac;" horiz-adv-x="1388" d="M37 512l8 74h109q-8 49 -9 108v37h-71l8 74h72q41 266 245.5 443t479.5 177q238 0 424 -135l14 -10v-74h-74v35q-170 113 -364 113q-244 0 -426.5 -157t-223.5 -392h750l-10 -74h-748q0 -6 -1 -18.5t-1 -18.5q0 -47 10 -108h713l-10 -74h-686q59 -207 234 -341t399 -134 q211 0 378 121l46 -60q-190 -135 -424 -135q-252 0 -450 154.5t-259 394.5h-133z" />
<glyph unicode="&#x2122;" horiz-adv-x="2048" d="M145 1317v74h660v-74h-293v-805h-74v805h-293zM842 512v74h2l98 809h57l371 -805l371 805h57l113 -865l-72 -10l-92 713l-342 -744h-68l-342 742l-86 -719h-67z" />
<glyph unicode="&#xe000;" horiz-adv-x="970" d="M0 970h970v-970h-970v970z" />
<glyph unicode="&#xfb01;" horiz-adv-x="1024" d="M74 879v71h145v148q0 129 91 220t220 91q66 0 127 -29v-63h-71v12q-28 6 -56 6q-98 0 -167.5 -69.5t-69.5 -167.5v-148h293v-71h-293v-879h-74v879h-145zM768 879v71h109v-950h-74v879h-35zM768 1253.5q0 26.5 18.5 45t45 18.5t45 -18.5t18.5 -45t-18.5 -46t-45 -19.5 t-45 19.5t-18.5 46z" />
<glyph unicode="&#xfb02;" horiz-adv-x="1024" d="M74 879v71h145v148q0 129 91 220t220 91q66 0 127 -29v-63h-71v12q-28 6 -56 6q-98 0 -167.5 -69.5t-69.5 -167.5v-148h293v-71h-293v-879h-74v879h-145zM768 1317v74h109v-1391h-74v1317h-35z" />
<glyph unicode="&#xfb03;" horiz-adv-x="1607" d="M74 879v71h145v148q0 129 91 220t220 91q66 0 127 -29v-63h-71v12q-28 6 -56 6q-98 0 -167.5 -69.5t-69.5 -167.5v-148h256v-71h-256v-879h-74v879h-145zM659 879v71h148v148q0 129 91 220t220 91q66 0 127 -29v-63h-74v12q-29 6 -53 6q-98 0 -168.5 -69.5t-70.5 -167.5 v-148h292v-71h-292v-879h-72v879h-148zM1356 879v71h108v-950h-73v879h-35zM1356 1253.5q0 26.5 18.5 45t45 18.5t45 -18.5t18.5 -45t-18.5 -46t-45 -19.5t-45 19.5t-18.5 46z" />
<glyph unicode="&#xfb04;" horiz-adv-x="1607" d="M74 879v71h145v148q0 129 91 220t220 91q66 0 127 -29v-63h-71v12q-28 6 -56 6q-98 0 -167.5 -69.5t-69.5 -167.5v-148h256v-71h-256v-879h-74v879h-145zM659 879v71h146v148q0 129 91 220t220 91q66 0 127 -29v-63h-72v12q-28 6 -55 6q-98 0 -167.5 -69.5t-69.5 -167.5 v-148h292v-71h-292v-879h-74v879h-146zM1354 1317v74h108v-1391h-73v1317h-35z" />
</font>
</defs>
</svg>
